<svg width="64" height="64" viewBox="0 0 64 64" fill="none" xmlns="http://www.w3.org/2000/svg">
<path d="M48.3356 38.0503C43.8872 38.0503 40.2683 41.6692 40.2683 46.1175C40.2683 50.5659 43.8872 54.1848 48.3356 54.1848C52.7847 54.1848 56.4028 50.5659 56.4028 46.1175C56.4028 41.6692 52.784 38.0503 48.3356 38.0503ZM48.3356 50.1512C46.1111 50.1512 44.302 48.342 44.302 46.1175C44.302 43.893 46.1111 42.0839 48.3356 42.0839C50.5601 42.0839 52.3692 43.893 52.3692 46.1175C52.3692 48.3422 50.5601 50.1512 48.3356 50.1512Z" fill="#5B1827"/>
<path d="M20.7728 38.0503C16.3244 38.0503 12.7055 41.6692 12.7055 46.1175C12.7055 50.5659 16.3244 54.1848 20.7728 54.1848C25.2212 54.1848 28.84 50.5659 28.84 46.1175C28.84 41.6692 25.2212 38.0503 20.7728 38.0503ZM20.7728 50.1512C18.5483 50.1512 16.7392 48.342 16.7392 46.1175C16.7392 43.893 18.5483 42.0839 20.7728 42.0839C22.9967 42.0839 24.8064 43.893 24.8064 46.1175C24.8064 48.3422 22.9973 50.1512 20.7728 50.1512Z" fill="#5B1827"/>
<path d="M53.7688 14.9593C53.4259 14.2783 52.7288 13.8486 51.9664 13.8486H41.3445V17.8823H50.7227L56.2144 28.8053L59.8192 26.9928L53.7688 14.9593Z" fill="#5B1827"/>
<path d="M42.2856 44.1681H27.0251V48.2017H42.2856V44.1681Z" fill="#5B1827"/>
<path d="M14.7226 44.1681H7.73108C6.61707 44.1681 5.71432 45.071 5.71432 46.1848C5.71432 47.2988 6.6172 48.2016 7.73108 48.2016H14.7227C15.8367 48.2016 16.7395 47.2987 16.7395 46.1848C16.7395 45.0708 15.8366 44.1681 14.7226 44.1681Z" fill="#5B1827"/>
<path d="M63.5764 31.8387L59.6094 26.7294C59.2283 26.2373 58.6401 25.9496 58.0168 25.9496H43.3613V11.8319C43.3613 10.7179 42.4584 9.81519 41.3446 9.81519H7.73107C6.61707 9.81519 5.71432 10.7181 5.71432 11.8319C5.71432 12.9458 6.6172 13.8487 7.73107 13.8487H39.3277V27.9663C39.3277 29.0803 40.2306 29.9831 41.3444 29.9831H57.0292L59.9663 33.7666V44.1679H54.3864C53.2724 44.1679 52.3697 45.0708 52.3697 46.1847C52.3697 47.2987 53.2726 48.2014 54.3864 48.2014H61.9831C63.0971 48.2014 63.9998 47.2986 63.9999 46.1847V33.0757C63.9999 32.6279 63.8507 32.1923 63.5764 31.8387Z" fill="#5B1827"/>
<path d="M14.5886 33.9497H5.31121C4.19721 33.9497 3.29446 34.8526 3.29446 35.9665C3.29446 37.0805 4.19734 37.9832 5.31121 37.9832H14.5885C15.7025 37.9832 16.6052 37.0803 16.6052 35.9665C16.6053 34.8526 15.7025 33.9497 14.5886 33.9497Z" fill="#5B1827"/>
<path d="M19.2269 26.0167H2.01675C0.902875 26.0167 0 26.9196 0 28.0336C0 29.1476 0.902875 30.0503 2.01675 30.0503H19.2269C20.3409 30.0503 21.2436 29.1475 21.2436 28.0336C21.2436 26.9197 20.3409 26.0167 19.2269 26.0167Z" fill="#5B1827"/>
<path d="M22.5213 18.0841H5.31121C4.19721 18.0841 3.29446 18.987 3.29446 20.1009C3.29446 21.2149 4.19734 22.1176 5.31121 22.1176H22.5213C23.6353 22.1176 24.5381 21.2147 24.5381 20.1009C24.5382 18.987 23.6353 18.0841 22.5213 18.0841Z" fill="#5B1827"/>
</svg>
