<svg width="64" height="64" viewBox="0 0 64 64" fill="none" xmlns="http://www.w3.org/2000/svg">
<g clip-path="url(#clip0_326_10505)">
<path d="M63.4509 49.4388L53.3098 39.2965L53.1009 36.726L55.8958 35.0228C56.6863 34.541 57.0069 33.5545 56.6507 32.7L55.3913 29.6793L57.5228 27.1958C58.1257 26.4934 58.1258 25.4562 57.523 24.7535L55.3912 22.2692L56.6507 19.2483C57.0069 18.3939 56.6863 17.4073 55.8958 16.9255L53.1009 15.2223L53.3659 11.9605C53.4409 11.0378 52.831 10.1984 51.9304 9.98441L48.7464 9.22829L47.99 6.04341C47.7762 5.14254 46.935 4.53316 46.014 4.60779L42.7513 4.87279L41.0479 2.07779C40.5662 1.28704 39.579 0.966912 38.7249 1.32304L35.7044 2.58329L33.2214 0.451912C32.519 -0.150963 31.4814 -0.150963 30.779 0.451912L28.2958 2.58329L25.2752 1.32316C24.4205 0.966787 23.434 1.28729 22.9522 2.07791L21.2488 4.87291L17.986 4.60791C17.0633 4.53404 16.224 5.14266 16.01 6.04354L15.2537 9.22841L12.0697 9.98454C11.169 10.1985 10.5592 11.0379 10.6342 11.9607L10.8992 15.2224L8.10429 16.9257C7.31379 17.4074 6.99316 18.3939 7.34941 19.2484L8.60891 22.2693L6.47704 24.7537C5.87429 25.4562 5.87441 26.4934 6.47729 27.1959L8.60879 29.6794L7.34941 32.7002C6.99316 33.5545 7.31379 34.5412 8.10429 35.0229L10.8992 36.7262L10.6903 39.2967L0.549411 49.4388C0.0899106 49.8983 -0.0989644 50.5629 0.0504106 51.1954C0.199661 51.8279 0.665911 52.3379 1.28229 52.5434L8.91329 55.0868L11.4567 62.7178C11.6622 63.3343 12.1722 63.8004 12.8047 63.9497C13.4372 64.0989 14.1018 63.9102 14.5613 63.4507L28.4852 49.5279L30.7788 51.4973C31.4778 52.0974 32.5154 52.1037 33.2217 51.4973L35.5153 49.5279L49.4392 63.4505C49.8987 63.91 50.5633 64.0989 51.1958 63.9495C51.8283 63.8003 52.3383 63.334 52.5438 62.7177L55.0872 55.0867L62.7182 52.5433C63.3347 52.3378 63.8008 51.8278 63.95 51.1953C64.0993 50.5629 63.9104 49.8982 63.4509 49.4388ZM14.0555 58.6538L12.1743 53.0105C11.9877 52.4507 11.5482 52.0113 10.9884 51.8247L5.34641 49.9442L13.0854 42.205L15.2538 42.7202L16.0103 45.905C16.2243 46.8059 17.0662 47.4153 17.9863 47.3407L21.249 47.0757L22.9094 49.8003L14.0555 58.6538ZM40.1505 44.1375L38.6835 46.5448L36.082 45.4594C35.4284 45.1867 34.6764 45.3057 34.1387 45.7673L32.0002 47.6034L29.8617 45.7673C29.1098 45.1217 28.264 45.3152 27.9183 45.4594L25.3168 46.5448L23.8498 44.1375C23.4813 43.5328 22.8045 43.1874 22.097 43.2444L19.2869 43.4727L18.6354 40.7297C18.4718 40.0404 17.9337 39.5024 17.2445 39.3387L14.5024 38.6873L14.7307 35.878C14.788 35.1719 14.4424 34.4938 13.8374 34.1252L11.4299 32.658L12.5147 30.0564C12.7873 29.4027 12.6683 28.6512 12.2068 28.1137L10.3709 25.9747L12.2069 23.8349C12.668 23.2974 12.7872 22.546 12.5145 21.8923L11.4298 19.2907L13.8373 17.8235C14.4423 17.4548 14.7878 16.7767 14.7305 16.0707L14.5023 13.2614L17.2444 12.6102C17.9335 12.4465 18.4717 11.9084 18.6353 11.2192L19.2868 8.47616L22.0969 8.70429C22.803 8.76216 23.481 8.41616 23.8497 7.81116L25.3167 5.40391L27.9182 6.48929C28.5717 6.76191 29.3237 6.64304 29.8613 6.18166L32.0002 4.34579L34.1389 6.18166C34.6767 6.64316 35.4283 6.76191 36.082 6.48929L38.6835 5.40391L40.1505 7.81116C40.5192 8.41604 41.1963 8.76241 41.9033 8.70429L44.7134 8.47616L45.3649 11.2192C45.5285 11.9084 46.0667 12.4465 46.7558 12.6102L49.4979 13.2614L49.2697 16.0707C49.2123 16.7768 49.5579 17.4549 50.1629 17.8235L52.5704 19.2907L51.4857 21.8923C51.213 22.5459 51.332 23.2974 51.7933 23.8349L53.6293 25.9747L51.7934 28.1137C51.332 28.6512 51.2129 29.4027 51.4855 30.0564L52.5703 32.658L50.1628 34.1252C49.5578 34.4939 49.2123 35.172 49.2695 35.878L49.4978 38.6873L46.7557 39.3387C46.0665 39.5024 45.5284 40.0404 45.3648 40.7297L44.7133 43.4727L41.9032 43.2444C41.1972 43.187 40.5192 43.5325 40.1505 44.1375ZM53.0119 51.8247C52.452 52.0113 52.0127 52.4507 51.826 53.0105L49.9448 58.6538L41.0912 49.8002L42.7515 47.0755L46.0143 47.3405C46.9343 47.4152 47.7763 46.8058 47.9903 45.9049L48.7468 42.72L50.9152 42.2049L58.6542 49.944L53.0119 51.8247Z" fill="#5B1827"/>
<path d="M47.3841 20.6326L41.7036 14.9521C40.9715 14.2199 39.7842 14.2199 39.052 14.9521L29.9917 24.0124L25.9522 19.973C25.2201 19.2408 24.0329 19.2408 23.3006 19.973L17.6201 25.6536C16.8879 26.3859 16.8879 27.573 17.6201 28.3053L28.666 39.3511C29.3982 40.0835 30.5856 40.0833 31.3176 39.3511L47.3842 23.2844C48.1165 22.552 48.1165 21.3649 47.3841 20.6326ZM29.9917 35.3735L21.5975 26.9794L24.6264 23.9505L28.6659 27.9899C29.398 28.7221 30.5852 28.7221 31.3175 27.9899L40.3777 18.9296L43.4066 21.9585L29.9917 35.3735Z" fill="#5B1827"/>
</g>
<defs>
<clipPath id="clip0_326_10505">
<rect width="64" height="64" fill="white"/>
</clipPath>
</defs>
</svg>
