<svg width="16" height="17" viewBox="0 0 16 17" fill="none" xmlns="http://www.w3.org/2000/svg">
<g clip-path="url(#clip0_314_1222)">
<path d="M15.8167 8.05759C15.8165 8.0574 15.8163 8.05718 15.8161 8.057L12.5504 4.807C12.3057 4.56353 11.91 4.56444 11.6665 4.80912C11.423 5.05378 11.4239 5.4495 11.6686 5.693L13.8612 7.875H0.625C0.279813 7.875 0 8.15481 0 8.5C0 8.84518 0.279813 9.12499 0.625 9.12499H13.8612L11.6686 11.307C11.4239 11.5505 11.423 11.9462 11.6665 12.1909C11.91 12.4356 12.3058 12.4364 12.5504 12.193L15.8162 8.94299C15.8163 8.94281 15.8165 8.94259 15.8167 8.9424C16.0615 8.69809 16.0607 8.30109 15.8167 8.05759Z" fill="#5B1827"/>
</g>
<defs>
<clipPath id="clip0_314_1222">
<rect width="16" height="16" fill="white" transform="translate(0 0.5)"/>
</clipPath>
</defs>
</svg>
