<svg width="64" height="64" viewBox="0 0 64 64" fill="none" xmlns="http://www.w3.org/2000/svg">
<path d="M60.25 36.5312V5.75C60.25 4.71436 59.4106 3.875 58.375 3.875H48.875V1.875C48.875 0.839355 48.0356 0 47 0C45.9644 0 45.125 0.839355 45.125 1.875V3.875H37.625V1.875C37.625 0.839355 36.7856 0 35.75 0C34.7144 0 33.875 0.839355 33.875 1.875V3.875H26.375V1.875C26.375 0.839355 25.5356 0 24.5 0C23.4644 0 22.625 0.839355 22.625 1.875V3.875H15.125V1.875C15.125 0.839355 14.2856 0 13.25 0C12.2144 0 11.375 0.839355 11.375 1.875V3.875H1.875C0.839355 3.875 0 4.71436 0 5.75V54.625C0 55.6606 0.839355 56.5 1.875 56.5H33.1006C36.1318 61.019 41.2866 64 47.125 64C56.4297 64 64 56.4297 64 47.125C64 43.1162 62.5938 39.4297 60.25 36.5312ZM11.375 7.625V9.5C11.375 10.5356 12.2144 11.375 13.25 11.375C14.2856 11.375 15.125 10.5356 15.125 9.5V7.625H22.625V9.5C22.625 10.5356 23.4644 11.375 24.5 11.375C25.5356 11.375 26.375 10.5356 26.375 9.5V7.625H33.875V9.5C33.875 10.5356 34.7144 11.375 35.75 11.375C36.7856 11.375 37.625 10.5356 37.625 9.5V7.625H45.125V9.5C45.125 10.5356 45.9644 11.375 47 11.375C48.0356 11.375 48.875 10.5356 48.875 9.5V7.625H56.5V15.125H3.75V7.625H11.375ZM3.75 52.75V18.875H56.5V33.1006C53.8169 31.3013 50.5913 30.25 47.125 30.25C41.2002 30.25 35.9795 33.3198 32.9678 37.9517C32.7144 37.8237 32.4287 37.75 32.125 37.75H28.375C27.3394 37.75 26.5 38.5894 26.5 39.625C26.5 40.6606 27.3394 41.5 28.375 41.5H31.2153C30.792 42.6943 30.499 43.9502 30.355 45.25H28.375C27.3394 45.25 26.5 46.0894 26.5 47.125C26.5 48.1606 27.3394 49 28.375 49H30.355C30.499 50.2998 30.7915 51.5557 31.2153 52.75H3.75ZM47.125 60.25C39.8877 60.25 34 54.3623 34 47.125C34 39.8877 39.8877 34 47.125 34C54.3623 34 60.25 39.8877 60.25 47.125C60.25 54.3623 54.3623 60.25 47.125 60.25Z" fill="#5B1827"/>
<path d="M54.625 45.25H49V39.625C49 38.5894 48.1606 37.75 47.125 37.75C46.0894 37.75 45.25 38.5894 45.25 39.625V47.125C45.25 48.1606 46.0894 49 47.125 49H54.625C55.6606 49 56.5 48.1606 56.5 47.125C56.5 46.0894 55.6606 45.25 54.625 45.25Z" fill="#5B1827"/>
<path d="M17 22.75H13.25C12.2144 22.75 11.375 23.5894 11.375 24.625C11.375 25.6606 12.2144 26.5 13.25 26.5H17C18.0356 26.5 18.875 25.6606 18.875 24.625C18.875 23.5894 18.0356 22.75 17 22.75Z" fill="#5B1827"/>
<path d="M17 30.25H13.25C12.2144 30.25 11.375 31.0894 11.375 32.125C11.375 33.1606 12.2144 34 13.25 34H17C18.0356 34 18.875 33.1606 18.875 32.125C18.875 31.0894 18.0356 30.25 17 30.25Z" fill="#5B1827"/>
<path d="M17 37.75H13.25C12.2144 37.75 11.375 38.5894 11.375 39.625C11.375 40.6606 12.2144 41.5 13.25 41.5H17C18.0356 41.5 18.875 40.6606 18.875 39.625C18.875 38.5894 18.0356 37.75 17 37.75Z" fill="#5B1827"/>
<path d="M28.375 26.5H32.125C33.1606 26.5 34 25.6606 34 24.625C34 23.5894 33.1606 22.75 32.125 22.75H28.375C27.3394 22.75 26.5 23.5894 26.5 24.625C26.5 25.6606 27.3394 26.5 28.375 26.5Z" fill="#5B1827"/>
<path d="M28.375 34H32.125C33.1606 34 34 33.1606 34 32.125C34 31.0894 33.1606 30.25 32.125 30.25H28.375C27.3394 30.25 26.5 31.0894 26.5 32.125C26.5 33.1606 27.3394 34 28.375 34Z" fill="#5B1827"/>
<path d="M17 45.25H13.25C12.2144 45.25 11.375 46.0894 11.375 47.125C11.375 48.1606 12.2144 49 13.25 49H17C18.0356 49 18.875 48.1606 18.875 47.125C18.875 46.0894 18.0356 45.25 17 45.25Z" fill="#5B1827"/>
<path d="M43.375 26.5H47.125C48.1606 26.5 49 25.6606 49 24.625C49 23.5894 48.1606 22.75 47.125 22.75H43.375C42.3394 22.75 41.5 23.5894 41.5 24.625C41.5 25.6606 42.3394 26.5 43.375 26.5Z" fill="#5B1827"/>
</svg>
