<svg width="64" height="64" viewBox="0 0 64 64" fill="none" xmlns="http://www.w3.org/2000/svg">
<path d="M64 37.6471H60.2353V22.5882H54.5882V15.0588H47.0588V0H30.1176V7.52941H15.0588V15.0588H5.64706C2.52712 15.0588 0 17.5856 0 20.7059V54.5882C0 59.7779 4.22199 64 9.41177 64H60.2353V56.4706H64V37.6471ZM56.4706 26.3529V30.1176H3.76471V26.0304C5.11649 26.5093 4.06375 26.3529 56.4706 26.3529ZM50.8235 18.8235V22.5882H47.0588V18.8235H50.8235ZM33.8824 3.76471H43.2941V22.5882H33.8824C33.8824 20.4675 33.8824 5.64016 33.8824 3.76471ZM18.8235 11.2941H30.1176V22.5882H18.8235V11.2941ZM5.64706 18.8235H15.0588V22.5882H5.64706C4.609 22.5882 3.76471 21.7438 3.76471 20.7059C3.76471 19.6667 4.60762 18.8235 5.64706 18.8235ZM56.4706 60.2353H9.41177C6.29785 60.2353 3.76471 57.7022 3.76471 54.5882V33.8824H56.4706V37.6471H48.9412C43.7514 37.6471 39.5294 41.8692 39.5294 47.0588C39.5294 52.2485 43.7514 56.4706 48.9412 56.4706H56.4706V60.2353ZM60.2353 52.7059H48.9412C45.8273 52.7059 43.2941 50.1727 43.2941 47.0588C43.2941 43.9449 45.8273 41.4118 48.9412 41.4118H60.2353V52.7059Z" fill="#5B1827"/>
<path d="M48.9415 45.1764H52.7062V48.9411H48.9415V45.1764Z" fill="#5B1827"/>
</svg>
