<svg width="64" height="64" viewBox="0 0 64 64" fill="none" xmlns="http://www.w3.org/2000/svg">
<g clip-path="url(#clip0_326_10525)">
<path d="M57.104 0H6.89551C3.09326 0 0 3.09326 0 6.896V57.104C0 60.9067 3.09326 64 6.89551 64H57.104C60.9067 64 64 60.9067 64 57.104V6.896C64 3.09326 60.9067 0 57.104 0V0ZM25.6406 3.75H38.1582V12.9209C38.1582 14.6553 36.7471 16.0664 35.0127 16.0664H28.7866C27.0518 16.0664 25.6406 14.6553 25.6406 12.9209V3.75ZM60.25 57.104C60.25 58.8389 58.8389 60.25 57.104 60.25H6.89551C5.16113 60.25 3.75 58.8389 3.75 57.104V6.896C3.75 5.16113 5.16113 3.75 6.89551 3.75H21.8906V12.9209C21.8906 16.7231 24.9839 19.8164 28.7866 19.8164H35.0127C38.8149 19.8164 41.9082 16.7231 41.9082 12.9209V3.75H57.104C58.8389 3.75 60.25 5.16113 60.25 6.896V57.104Z" fill="#5B1827"/>
<path d="M38.025 32.9653H26.485L28.9644 30.4854C29.6969 29.7534 29.6969 28.5659 28.9644 27.834C28.2325 27.1016 27.045 27.1016 26.3131 27.834L20.6324 33.5146C20.2809 33.8662 20.0831 34.3433 20.0831 34.8403C20.0831 35.3379 20.2809 35.8145 20.6324 36.166L26.3131 41.8462C26.6793 42.2124 27.1588 42.3955 27.6388 42.3955C28.1187 42.3955 28.5987 42.2124 28.9644 41.8462C29.6969 41.1138 29.6969 39.9268 28.9644 39.1948L26.485 36.7153H38.025C41.4205 36.7153 44.1837 39.478 44.1837 42.8735C44.1837 46.2695 41.4205 49.0322 38.025 49.0322H21.9581C20.9229 49.0322 20.0831 49.8716 20.0831 50.9072C20.0831 51.9424 20.9229 52.7822 21.9581 52.7822H38.025C43.4884 52.7822 47.9337 48.3374 47.9337 42.8735C47.9337 37.4102 43.4884 32.9653 38.025 32.9653Z" fill="#5B1827"/>
</g>
<defs>
<clipPath id="clip0_326_10525">
<rect width="64" height="64" fill="white"/>
</clipPath>
</defs>
</svg>
